<mxfile host="app.diagrams.net" modified="2024-01-13T14:46:08.498Z" agent="Mozilla/5.0 (Windows NT 10.0; Win64; x64) AppleWebKit/537.36 (KHTML, like Gecko) Chrome/120.0.0.0 Safari/537.36" version="22.1.18" etag="HbkFI5dwMuq0cPEn76T_" type="device">
  <diagram id="Y7W1k7FXo4_VHgs3F3Zc" name="Page-1">
    <mxGraphModel dx="880" dy="468" grid="1" gridSize="10" guides="1" tooltips="1" connect="1" arrows="0" fold="1" page="1" pageScale="1" pageWidth="850" pageHeight="1100" background="none" math="0" shadow="0">
      <root>
        <mxCell id="0" />
        <mxCell id="1" parent="0" />
        <mxCell id="AmsxzKeUiMaNAP5xaX9F-10" style="edgeStyle=orthogonalEdgeStyle;rounded=0;orthogonalLoop=1;jettySize=auto;html=1;exitX=0.5;exitY=1;exitDx=0;exitDy=0;entryX=0;entryY=0.5;entryDx=0;entryDy=0;" parent="1" source="AmsxzKeUiMaNAP5xaX9F-1" target="AmsxzKeUiMaNAP5xaX9F-8" edge="1">
          <mxGeometry relative="1" as="geometry" />
        </mxCell>
        <mxCell id="AmsxzKeUiMaNAP5xaX9F-13" style="edgeStyle=orthogonalEdgeStyle;rounded=0;orthogonalLoop=1;jettySize=auto;html=1;exitX=0.5;exitY=1;exitDx=0;exitDy=0;entryX=0;entryY=0.5;entryDx=0;entryDy=0;" parent="1" source="AmsxzKeUiMaNAP5xaX9F-1" target="AmsxzKeUiMaNAP5xaX9F-12" edge="1">
          <mxGeometry relative="1" as="geometry">
            <Array as="points">
              <mxPoint x="265" y="170" />
              <mxPoint x="220" y="170" />
              <mxPoint x="220" y="355" />
            </Array>
          </mxGeometry>
        </mxCell>
        <mxCell id="AmsxzKeUiMaNAP5xaX9F-33" style="edgeStyle=orthogonalEdgeStyle;rounded=0;orthogonalLoop=1;jettySize=auto;html=1;exitX=0.5;exitY=1;exitDx=0;exitDy=0;entryX=0;entryY=0.5;entryDx=0;entryDy=0;dashed=1;dashPattern=1 4;" parent="1" source="AmsxzKeUiMaNAP5xaX9F-1" target="AmsxzKeUiMaNAP5xaX9F-31" edge="1">
          <mxGeometry relative="1" as="geometry">
            <Array as="points">
              <mxPoint x="265" y="170" />
              <mxPoint x="220" y="170" />
              <mxPoint x="220" y="640" />
            </Array>
          </mxGeometry>
        </mxCell>
        <mxCell id="AmsxzKeUiMaNAP5xaX9F-1" value="" style="shape=image;html=1;verticalAlign=top;verticalLabelPosition=bottom;labelBackgroundColor=#ffffff;imageAspect=0;aspect=fixed;image=https://cdn4.iconfinder.com/data/icons/essentials-74/24/007_-_File-128.png" parent="1" vertex="1">
          <mxGeometry x="240" y="90" width="50" height="50" as="geometry" />
        </mxCell>
        <mxCell id="AmsxzKeUiMaNAP5xaX9F-2" value="&lt;h3&gt;&lt;b&gt;&lt;font face=&quot;Helvetica&quot;&gt;App.js&lt;/font&gt;&lt;/b&gt;&lt;/h3&gt;" style="text;html=1;align=center;verticalAlign=middle;resizable=0;points=[];autosize=1;strokeColor=none;fillColor=none;" parent="1" vertex="1">
          <mxGeometry x="285" y="85" width="70" height="60" as="geometry" />
        </mxCell>
        <mxCell id="AmsxzKeUiMaNAP5xaX9F-7" value="" style="group" parent="1" vertex="1" connectable="0">
          <mxGeometry x="360" width="270" height="210" as="geometry" />
        </mxCell>
        <mxCell id="AmsxzKeUiMaNAP5xaX9F-4" value="&lt;pre style=&quot;font-size: 13px;&quot;&gt;&lt;font style=&quot;font-size: 13px;&quot; face=&quot;Lucida Console&quot;&gt;&amp;lt;BrowserRouter basename= ...&lt;br&gt;&lt;/font&gt;&lt;font style=&quot;font-size: 13px;&quot; face=&quot;Lucida Console&quot;&gt;&amp;nbsp;&amp;nbsp;&amp;nbsp;&lt;span style=&quot;white-space: pre;&quot;&gt;&#x9;&lt;/span&gt;&amp;lt;Routes&amp;gt;&lt;br&gt;&lt;/font&gt;&lt;font style=&quot;font-size: 13px;&quot; face=&quot;Lucida Console&quot;&gt;&amp;nbsp;&amp;nbsp;&amp;nbsp;&amp;nbsp;&amp;nbsp;&amp;nbsp;&amp;nbsp;&amp;nbsp;&lt;span style=&quot;white-space: pre;&quot;&gt;&#x9;&lt;/span&gt;&amp;lt;Route path= ...&lt;br&gt;&lt;/font&gt;&lt;font style=&quot;font-size: 13px;&quot; face=&quot;Lucida Console&quot;&gt;&lt;span style=&quot;white-space: pre;&quot;&gt;&#x9;&lt;/span&gt;&amp;nbsp;&amp;nbsp;&amp;nbsp;&amp;nbsp;&amp;nbsp;&amp;nbsp;&amp;nbsp;&amp;nbsp;&amp;lt;Route path= ...&lt;br&gt;&lt;/font&gt;&lt;font style=&quot;font-size: 13px;&quot; face=&quot;Lucida Console&quot;&gt;&lt;span style=&quot;white-space: pre;&quot;&gt;&lt;span style=&quot;white-space: pre;&quot;&gt;&#x9;&lt;span style=&quot;white-space: pre;&quot;&gt;&#x9;&lt;/span&gt;&lt;/span&gt;&lt;/span&gt;&amp;lt;Route path= ...&lt;span style=&quot;white-space: pre;&quot;&gt;&#x9;&lt;br&gt;&lt;/span&gt;&lt;/font&gt;&lt;font style=&quot;font-size: 13px;&quot; face=&quot;Lucida Console&quot;&gt;&lt;span style=&quot;white-space: pre;&quot;&gt;&#x9;&lt;/span&gt;&amp;lt;/Routes&amp;gt;&lt;br&gt;&lt;/font&gt;&lt;font style=&quot;font-size: 13px;&quot; face=&quot;Lucida Console&quot;&gt;&amp;lt;/BrowserRouter&amp;gt;&lt;/font&gt;&lt;/pre&gt;" style="strokeWidth=1;shadow=0;dashed=0;align=center;html=1;shape=mxgraph.mockup.text.textBox;fontColor=#666666;align=left;fontSize=17;spacingLeft=4;spacingTop=-3;whiteSpace=wrap;strokeColor=#666666;mainText=" parent="AmsxzKeUiMaNAP5xaX9F-7" vertex="1">
          <mxGeometry y="30" width="270" height="180" as="geometry" />
        </mxCell>
        <mxCell id="AmsxzKeUiMaNAP5xaX9F-6" value="&lt;b&gt;This Contains top level routing config&lt;/b&gt;" style="text;html=1;strokeColor=none;fillColor=none;align=left;verticalAlign=middle;whiteSpace=wrap;rounded=0;" parent="AmsxzKeUiMaNAP5xaX9F-7" vertex="1">
          <mxGeometry width="270" height="30" as="geometry" />
        </mxCell>
        <mxCell id="AmsxzKeUiMaNAP5xaX9F-8" value="" style="shape=image;html=1;verticalAlign=top;verticalLabelPosition=bottom;labelBackgroundColor=#ffffff;imageAspect=0;aspect=fixed;image=https://cdn4.iconfinder.com/data/icons/essentials-74/24/007_-_File-128.png" parent="1" vertex="1">
          <mxGeometry x="285" y="250" width="50" height="50" as="geometry" />
        </mxCell>
        <mxCell id="AmsxzKeUiMaNAP5xaX9F-9" value="&lt;h3&gt;&lt;b&gt;&lt;font face=&quot;Helvetica&quot;&gt;login.js&lt;/font&gt;&lt;/b&gt;&lt;/h3&gt;" style="text;html=1;align=center;verticalAlign=middle;resizable=0;points=[];autosize=1;strokeColor=none;fillColor=none;" parent="1" vertex="1">
          <mxGeometry x="330" y="245" width="70" height="60" as="geometry" />
        </mxCell>
        <mxCell id="AmsxzKeUiMaNAP5xaX9F-11" value="&lt;b&gt;Route = /&lt;/b&gt;" style="text;html=1;align=center;verticalAlign=middle;resizable=0;points=[];autosize=1;strokeColor=none;fillColor=none;rotation=0;" parent="1" vertex="1">
          <mxGeometry x="265" y="200" width="70" height="30" as="geometry" />
        </mxCell>
        <mxCell id="AmsxzKeUiMaNAP5xaX9F-12" value="" style="shape=image;html=1;verticalAlign=top;verticalLabelPosition=bottom;labelBackgroundColor=#ffffff;imageAspect=0;aspect=fixed;image=https://cdn4.iconfinder.com/data/icons/essentials-74/24/007_-_File-128.png" parent="1" vertex="1">
          <mxGeometry x="285" y="330" width="50" height="50" as="geometry" />
        </mxCell>
        <mxCell id="AmsxzKeUiMaNAP5xaX9F-14" value="&lt;b&gt;Route = /app&lt;/b&gt;" style="text;html=1;align=center;verticalAlign=middle;resizable=0;points=[];autosize=1;strokeColor=none;fillColor=none;rotation=0;" parent="1" vertex="1">
          <mxGeometry x="120" y="250" width="100" height="30" as="geometry" />
        </mxCell>
        <mxCell id="AmsxzKeUiMaNAP5xaX9F-15" value="&lt;h3&gt;&lt;b&gt;&lt;font face=&quot;Helvetica&quot;&gt;landing.js&lt;/font&gt;&lt;/b&gt;&lt;/h3&gt;" style="text;html=1;align=center;verticalAlign=middle;resizable=0;points=[];autosize=1;strokeColor=none;fillColor=none;" parent="1" vertex="1">
          <mxGeometry x="330" y="325" width="90" height="60" as="geometry" />
        </mxCell>
        <mxCell id="AmsxzKeUiMaNAP5xaX9F-16" value="" style="group" parent="1" vertex="1" connectable="0">
          <mxGeometry x="425" y="310" width="270" height="210" as="geometry" />
        </mxCell>
        <mxCell id="AmsxzKeUiMaNAP5xaX9F-17" value="&lt;pre style=&quot;font-size: 13px;&quot;&gt;&lt;br&gt;&lt;/pre&gt;" style="strokeWidth=1;shadow=0;dashed=0;align=center;html=1;shape=mxgraph.mockup.text.textBox;fontColor=#666666;align=left;fontSize=17;spacingLeft=4;spacingTop=-3;whiteSpace=wrap;strokeColor=#666666;mainText=" parent="AmsxzKeUiMaNAP5xaX9F-16" vertex="1">
          <mxGeometry y="30" width="270" height="180" as="geometry" />
        </mxCell>
        <mxCell id="AmsxzKeUiMaNAP5xaX9F-18" value="&lt;b&gt;Landing Layout&lt;/b&gt;" style="text;html=1;strokeColor=none;fillColor=none;align=left;verticalAlign=middle;whiteSpace=wrap;rounded=0;" parent="AmsxzKeUiMaNAP5xaX9F-16" vertex="1">
          <mxGeometry width="270" height="30" as="geometry" />
        </mxCell>
        <mxCell id="AmsxzKeUiMaNAP5xaX9F-19" value="Top Nav" style="rounded=0;whiteSpace=wrap;html=1;" parent="AmsxzKeUiMaNAP5xaX9F-16" vertex="1">
          <mxGeometry x="10" y="40" width="240" height="20" as="geometry" />
        </mxCell>
        <mxCell id="AmsxzKeUiMaNAP5xaX9F-20" value="Side Nav" style="rounded=0;whiteSpace=wrap;html=1;" parent="AmsxzKeUiMaNAP5xaX9F-16" vertex="1">
          <mxGeometry x="10" y="70" width="50" height="130" as="geometry" />
        </mxCell>
        <mxCell id="AmsxzKeUiMaNAP5xaX9F-26" value="&lt;b&gt;Mainframe Component&lt;/b&gt;" style="rounded=0;whiteSpace=wrap;html=1;" parent="AmsxzKeUiMaNAP5xaX9F-16" vertex="1">
          <mxGeometry x="70" y="70" width="180" height="130" as="geometry" />
        </mxCell>
        <mxCell id="AmsxzKeUiMaNAP5xaX9F-27" value="" style="shape=image;html=1;verticalAlign=top;verticalLabelPosition=bottom;labelBackgroundColor=#ffffff;imageAspect=0;aspect=fixed;image=https://cdn4.iconfinder.com/data/icons/essentials-74/24/007_-_File-128.png" parent="AmsxzKeUiMaNAP5xaX9F-16" vertex="1">
          <mxGeometry x="135" y="150" width="40" height="40" as="geometry" />
        </mxCell>
        <mxCell id="AmsxzKeUiMaNAP5xaX9F-29" value="&lt;h3&gt;&lt;b&gt;&lt;font face=&quot;Helvetica&quot;&gt;mainframe.js&lt;/font&gt;&lt;/b&gt;&lt;/h3&gt;" style="text;html=1;align=center;verticalAlign=middle;resizable=0;points=[];autosize=1;strokeColor=none;fillColor=none;" parent="1" vertex="1">
          <mxGeometry x="730" y="450" width="110" height="60" as="geometry" />
        </mxCell>
        <mxCell id="AmsxzKeUiMaNAP5xaX9F-30" style="edgeStyle=orthogonalEdgeStyle;rounded=0;orthogonalLoop=1;jettySize=auto;html=1;exitX=0.014;exitY=0.504;exitDx=0;exitDy=0;entryX=1;entryY=0.5;entryDx=0;entryDy=0;exitPerimeter=0;dashed=1;" parent="1" source="AmsxzKeUiMaNAP5xaX9F-29" target="AmsxzKeUiMaNAP5xaX9F-27" edge="1">
          <mxGeometry relative="1" as="geometry" />
        </mxCell>
        <mxCell id="AmsxzKeUiMaNAP5xaX9F-31" value="&lt;p style=&quot;font-size: 13px;&quot;&gt;&lt;b&gt;Mainframe will have &lt;font style=&quot;font-size: 13px;&quot; color=&quot;#ff0000&quot;&gt;&amp;lt;Outlet /&amp;gt;&lt;/font&gt; component which will display nested routes&lt;/b&gt;&lt;/p&gt;" style="text;html=1;strokeColor=#47A7BA;fillColor=none;align=center;verticalAlign=middle;whiteSpace=wrap;rounded=0;dashed=1;" parent="1" vertex="1">
          <mxGeometry x="445" y="600" width="270" height="80" as="geometry" />
        </mxCell>
        <mxCell id="AmsxzKeUiMaNAP5xaX9F-32" style="edgeStyle=orthogonalEdgeStyle;rounded=0;orthogonalLoop=1;jettySize=auto;html=1;exitX=0.5;exitY=1;exitDx=0;exitDy=0;entryX=0.5;entryY=0;entryDx=0;entryDy=0;dashed=1;" parent="1" source="AmsxzKeUiMaNAP5xaX9F-27" target="AmsxzKeUiMaNAP5xaX9F-31" edge="1">
          <mxGeometry relative="1" as="geometry" />
        </mxCell>
        <mxCell id="AmsxzKeUiMaNAP5xaX9F-34" value="&lt;b style=&quot;border-color: var(--border-color); color: rgb(0, 0, 0); font-family: Helvetica; font-size: 12px; font-style: normal; font-variant-ligatures: normal; font-variant-caps: normal; letter-spacing: normal; orphans: 2; text-align: center; text-indent: 0px; text-transform: none; widows: 2; word-spacing: 0px; -webkit-text-stroke-width: 0px; background-color: rgb(251, 251, 251); text-decoration-thickness: initial; text-decoration-style: initial; text-decoration-color: initial;&quot;&gt;Nested Route under&amp;nbsp; /app&lt;/b&gt;" style="text;whiteSpace=wrap;html=1;rotation=0;" parent="1" vertex="1">
          <mxGeometry x="70" y="520" width="150" height="40" as="geometry" />
        </mxCell>
      </root>
    </mxGraphModel>
  </diagram>
</mxfile>
